<?xml version="1.0" encoding="UTF-8" standalone="no"?>
<!-- Created with Inkscape (http://www.inkscape.org/) -->

<svg
   xmlns:dc="http://purl.org/dc/elements/1.1/"
   xmlns:cc="http://creativecommons.org/ns#"
   xmlns:rdf="http://www.w3.org/1999/02/22-rdf-syntax-ns#"
   xmlns:svg="http://www.w3.org/2000/svg"
   xmlns="http://www.w3.org/2000/svg"
   version="1.1"
   width="1052.3622"
   height="744.09448"
   id="svg2">
  <defs
     id="defs4">
    <marker
       refX="0"
       refY="0"
       orient="auto"
       id="Arrow1Mend"
       style="overflow:visible">
      <path
         d="M 0,0 5,-5 -12.5,0 5,5 0,0 z"
         transform="matrix(-0.4,0,0,-0.4,-4,0)"
         id="path4104"
         style="fill-rule:evenodd;stroke:#000000;stroke-width:1pt" />
    </marker>
    <marker
       refX="0"
       refY="0"
       orient="auto"
       id="Arrow1Send"
       style="overflow:visible">
      <path
         d="M 0,0 5,-5 -12.5,0 5,5 0,0 z"
         transform="matrix(-0.2,0,0,-0.2,-1.2,0)"
         id="path4110"
         style="fill-rule:evenodd;stroke:#000000;stroke-width:1pt" />
    </marker>
    <linearGradient
       id="linearGradient11342">
      <stop
         id="stop11344"
         style="stop-color:#ff06df;stop-opacity:1"
         offset="0" />
    </linearGradient>
    <marker
       refX="0"
       refY="0"
       orient="auto"
       id="TriangleOutL"
       style="overflow:visible">
      <path
         d="m 5.77,0 -8.65,5 0,-10 8.65,5 z"
         transform="scale(0.8,0.8)"
         id="path4237"
         style="fill-rule:evenodd;stroke:#000000;stroke-width:1pt" />
    </marker>
    <marker
       refX="0"
       refY="0"
       orient="auto"
       id="TriangleInL"
       style="overflow:visible">
      <path
         d="m 5.77,0 -8.65,5 0,-10 8.65,5 z"
         transform="scale(-0.8,-0.8)"
         id="path4228"
         style="fill-rule:evenodd;stroke:#000000;stroke-width:1pt" />
    </marker>
    <marker
       refX="0"
       refY="0"
       orient="auto"
       id="Arrow2Lstart"
       style="overflow:visible">
      <path
         d="M 8.7185878,4.0337352 -2.2072895,0.01601326 8.7185884,-4.0017078 c -1.7454984,2.3720609 -1.7354408,5.6174519 -6e-7,8.035443 z"
         transform="matrix(1.1,0,0,1.1,1.1,0)"
         id="path4113"
         style="fill-rule:evenodd;stroke-width:0.625;stroke-linejoin:round" />
    </marker>
    <marker
       refX="0"
       refY="0"
       orient="auto"
       id="Arrow2Lend"
       style="overflow:visible">
      <path
         d="M 8.7185878,4.0337352 -2.2072895,0.01601326 8.7185884,-4.0017078 c -1.7454984,2.3720609 -1.7354408,5.6174519 -6e-7,8.035443 z"
         transform="matrix(-1.1,0,0,-1.1,-1.1,0)"
         id="path4116"
         style="fill-rule:evenodd;stroke-width:0.625;stroke-linejoin:round" />
    </marker>
    <marker
       refX="0"
       refY="0"
       orient="auto"
       id="Arrow1Lstart"
       style="overflow:visible">
      <path
         d="M 0,0 5,-5 -12.5,0 5,5 0,0 z"
         transform="matrix(0.8,0,0,0.8,10,0)"
         id="path4095"
         style="fill-rule:evenodd;stroke:#000000;stroke-width:1pt" />
    </marker>
    <marker
       refX="0"
       refY="0"
       orient="auto"
       id="Arrow1Lend"
       style="overflow:visible">
      <path
         d="M 0,0 5,-5 -12.5,0 5,5 0,0 z"
         transform="matrix(-0.8,0,0,-0.8,-10,0)"
         id="path4098"
         style="fill-rule:evenodd;stroke:#000000;stroke-width:1pt" />
    </marker>
    <marker
       refX="0"
       refY="0"
       orient="auto"
       id="DotS"
       style="overflow:visible">
      <path
         d="m -2.5,-1 c 0,2.76 -2.24,5 -5,5 -2.76,0 -5,-2.24 -5,-5 0,-2.76 2.24,-5 5,-5 2.76,0 5,2.24 5,5 z"
         transform="matrix(0.2,0,0,0.2,1.48,0.2)"
         id="path4162"
         style="fill-rule:evenodd;stroke:#000000;stroke-width:1pt" />
    </marker>
    <marker
       refX="0"
       refY="0"
       orient="auto"
       id="DotM"
       style="overflow:visible">
      <path
         d="m -2.5,-1 c 0,2.76 -2.24,5 -5,5 -2.76,0 -5,-2.24 -5,-5 0,-2.76 2.24,-5 5,-5 2.76,0 5,2.24 5,5 z"
         transform="matrix(0.4,0,0,0.4,2.96,0.4)"
         id="path4159"
         style="fill-rule:evenodd;stroke:#000000;stroke-width:1pt" />
    </marker>
    <marker
       refX="0"
       refY="0"
       orient="auto"
       id="Arrow1MendZ"
       style="overflow:visible">
      <path
         d="M 0,0 5,-5 -12.5,0 5,5 0,0 z"
         transform="matrix(-0.4,0,0,-0.4,-4,0)"
         id="path5455"
         style="fill:#ff06df;fill-rule:evenodd;stroke:#ff06df;stroke-width:1pt" />
    </marker>
    <marker
       refX="0"
       refY="0"
       orient="auto"
       id="Arrow1MendZ-0"
       style="overflow:visible">
      <path
         d="M 0,0 5,-5 -12.5,0 5,5 0,0 z"
         transform="matrix(-0.4,0,0,-0.4,-4,0)"
         id="path5455-9"
         style="fill:#ff06df;fill-rule:evenodd;stroke:#ff06df;stroke-width:1pt" />
    </marker>
    <marker
       refX="0"
       refY="0"
       orient="auto"
       id="Arrow1MendZ-5"
       style="overflow:visible">
      <path
         d="M 0,0 5,-5 -12.5,0 5,5 0,0 z"
         transform="matrix(-0.4,0,0,-0.4,-4,0)"
         id="path5455-5"
         style="fill:#ff06df;fill-rule:evenodd;stroke:#ff06df;stroke-width:1pt" />
    </marker>
  </defs>
  <metadata
     id="metadata7">
    <rdf:RDF>
      <cc:Work
         rdf:about="">
        <dc:format>image/svg+xml</dc:format>
        <dc:type
           rdf:resource="http://purl.org/dc/dcmitype/StillImage" />
        <dc:title></dc:title>
      </cc:Work>
    </rdf:RDF>
  </metadata>
  <g
     transform="translate(0,-308.2677)"
     id="layer1">
    <path
       d="m 640,564.09448 -280,-20 -200,-220 c 53.33333,-53.33333 106.66667,-106.66667 160,-160 100,0 200,0 300,0 l 140,180 c -40,73.33333 -80,146.66667 -120,220 z"
       transform="translate(0,308.2677)"
       id="path3011"
       style="color:#000000;fill:#ff9000;fill-opacity:1;stroke:#000000;stroke-width:6;stroke-linecap:butt;stroke-linejoin:miter;stroke-miterlimit:4;stroke-opacity:1;stroke-dasharray:none;stroke-dashoffset:0;marker:none;marker-start:url(#DotS);marker-mid:url(#DotS);marker-end:url(#DotS);visibility:visible;display:inline;overflow:visible;enable-background:accumulate" />
    <path
       d="m 160,324.09448 300,20"
       transform="translate(0,308.2677)"
       id="path3039"
       style="color:#000000;fill:none;stroke:#000000;stroke-width:6;stroke-linecap:butt;stroke-linejoin:miter;stroke-miterlimit:4;stroke-opacity:1;stroke-dasharray:none;stroke-dashoffset:0;marker:none;marker-start:url(#DotS);marker-mid:url(#DotS);marker-end:url(#DotS);visibility:visible;display:inline;overflow:visible;enable-background:accumulate" />
    <path
       d="m 320,164.09448 140,180"
       transform="translate(0,308.2677)"
       id="path3041"
       style="color:#000000;fill:none;stroke:#000000;stroke-width:6;stroke-linecap:butt;stroke-linejoin:miter;stroke-miterlimit:4;stroke-opacity:1;stroke-dasharray:none;stroke-dashoffset:0;marker:none;marker-start:url(#DotS);marker-mid:url(#DotS);marker-end:url(#DotS);visibility:visible;display:inline;overflow:visible;enable-background:accumulate" />
    <path
       d="m 460,344.09448 180,220"
       transform="translate(0,308.2677)"
       id="path3133"
       style="color:#000000;fill:none;stroke:#000000;stroke-width:6;stroke-linecap:butt;stroke-linejoin:miter;stroke-miterlimit:4;stroke-opacity:1;stroke-dasharray:none;stroke-dashoffset:0;marker:none;marker-start:url(#DotS);marker-mid:url(#DotS);marker-end:url(#DotS);visibility:visible;display:inline;overflow:visible;enable-background:accumulate" />
    <path
       d="m 460,344.09448 300,0"
       transform="translate(0,308.2677)"
       id="path3135"
       style="color:#000000;fill:none;stroke:#000000;stroke-width:6;stroke-linecap:butt;stroke-linejoin:miter;stroke-miterlimit:4;stroke-opacity:1;stroke-dasharray:none;stroke-dashoffset:0;marker:none;marker-start:url(#DotS);marker-mid:url(#DotS);marker-end:url(#DotS);visibility:visible;display:inline;overflow:visible;enable-background:accumulate" />
    <path
       d="M 460.71428,341.95163 621.42857,165.52305"
       transform="translate(0,308.2677)"
       id="path3056"
       style="fill:none;stroke:#000000;stroke-width:6;stroke-linecap:butt;stroke-linejoin:miter;stroke-miterlimit:4;stroke-opacity:1;stroke-dasharray:none" />
    <path
       d="M 460.71428,344.80877 360,545.52305"
       transform="translate(0,308.2677)"
       id="path3058"
       style="fill:none;stroke:#000000;stroke-width:6;stroke-linecap:butt;stroke-linejoin:miter;stroke-miterlimit:4;stroke-opacity:1;stroke-dasharray:none" />
    <path
       d="m 404.10083,77.51083 c 0.091,0.08763 0.18179,0.175409 0.27248,0.263327"
       transform="matrix(-0.99833648,-0.05765645,0.05765645,-0.99833648,629.96885,621.04274)"
       id="path3896"
       style="fill:none;stroke:#000000;stroke-width:1px;stroke-linecap:butt;stroke-linejoin:miter;stroke-opacity:1" />
    <path
       d="m 371.42855,272.66593 c -58.3642,26.84751 -129.58105,0.50702 -156.42857,-57.85718 -26.84752,-58.3642 -0.50702,-129.581048 57.85718,-156.428565 58.3642,-26.847517 129.58105,-0.507022 156.42856,57.857175 26.84752,58.3642 0.50703,129.58105 -57.85717,156.42857"
       transform="translate(0,308.2677)"
       id="path3920"
       style="fill:none;stroke:#000000;stroke-width:3;stroke-linecap:butt;stroke-linejoin:miter;stroke-miterlimit:4;stroke-opacity:1;stroke-dasharray:none" />
    <path
       d="m 371.42855,272.66593 c -58.3642,26.84751 -129.58105,0.50702 -156.42857,-57.85718 -26.84752,-58.3642 -0.50702,-129.581048 57.85718,-156.428565 58.3642,-26.847517 129.58105,-0.507022 156.42856,57.857175 26.84752,58.3642 0.50703,129.58105 -57.85717,156.42857"
       transform="translate(-149.28571,469.69627)"
       id="path3920-3"
       style="fill:none;stroke:#000000;stroke-width:3;stroke-linecap:butt;stroke-linejoin:miter;stroke-miterlimit:4;stroke-opacity:1;stroke-dasharray:none" />
    <path
       d="m 371.42855,272.66593 c -58.3642,26.84751 -129.58105,0.50702 -156.42857,-57.85718 -26.84752,-58.3642 -0.50702,-129.581048 57.85718,-156.428565 58.3642,-26.847517 129.58105,-0.507022 156.42856,57.857175 26.84752,58.3642 0.50703,129.58105 -57.85717,156.42857"
       transform="translate(294.28572,310.41055)"
       id="path3920-3-8"
       style="fill:none;stroke:#000000;stroke-width:3;stroke-linecap:butt;stroke-linejoin:miter;stroke-miterlimit:4;stroke-opacity:1;stroke-dasharray:none" />
    <path
       d="m 371.42855,272.66593 c -58.3642,26.84751 -129.58105,0.50702 -156.42857,-57.85718 -26.84752,-58.3642 -0.50702,-129.581048 57.85718,-156.428565 58.3642,-26.847517 129.58105,-0.507022 156.42856,57.857175 26.84752,58.3642 0.50703,129.58105 -57.85717,156.42857"
       transform="translate(427.14286,488.98198)"
       id="path3920-3-8-4"
       style="fill:none;stroke:#000000;stroke-width:3;stroke-linecap:butt;stroke-linejoin:miter;stroke-miterlimit:4;stroke-opacity:1;stroke-dasharray:none" />
    <path
       d="m 371.42855,272.66593 c -58.3642,26.84751 -129.58105,0.50702 -156.42857,-57.85718 -26.84752,-58.3642 -0.50702,-129.581048 57.85718,-156.428565 58.3642,-26.847517 129.58105,-0.507022 156.42856,57.857175 26.84752,58.3642 0.50703,129.58105 -57.85717,156.42857"
       transform="translate(137.14286,492.55341)"
       id="path3920-3-8-9"
       style="fill:none;stroke:#000000;stroke-width:3;stroke-linecap:butt;stroke-linejoin:miter;stroke-miterlimit:4;stroke-opacity:1;stroke-dasharray:none" />
    <path
       d="m 371.42855,272.66593 c -58.3642,26.84751 -129.58105,0.50702 -156.42857,-57.85718 -26.84752,-58.3642 -0.50702,-129.581048 57.85718,-156.428565 58.3642,-26.847517 129.58105,-0.507022 156.42856,57.857175 26.84752,58.3642 0.50703,129.58105 -57.85717,156.42857"
       transform="translate(39.285714,677.55341)"
       id="path3920-3-8-1"
       style="fill:none;stroke:#000000;stroke-width:3;stroke-linecap:butt;stroke-linejoin:miter;stroke-miterlimit:4;stroke-opacity:1;stroke-dasharray:none" />
    <path
       d="m 371.42855,272.66593 c -58.3642,26.84751 -129.58105,0.50702 -156.42857,-57.85718 -26.84752,-58.3642 -0.50702,-129.581048 57.85718,-156.428565 58.3642,-26.847517 129.58105,-0.507022 156.42856,57.857175 26.84752,58.3642 0.50703,129.58105 -57.85717,156.42857"
       transform="translate(312.85715,698.98199)"
       id="path3920-3-8-7"
       style="fill:none;stroke:#000000;stroke-width:3;stroke-linecap:butt;stroke-linejoin:miter;stroke-miterlimit:4;stroke-opacity:1;stroke-dasharray:none" />
    <path
       d="m 321.75728,473.71396 201.59654,-1.33912"
       id="path4018"
       style="fill:none;stroke:#ff06df;stroke-width:5;stroke-linecap:butt;stroke-linejoin:miter;stroke-miterlimit:4;stroke-opacity:1;stroke-dasharray:none;marker-end:url(#Arrow1MendZ)" />
    <path
       d="m 319.7768,475.51722 80.57227,-81.5482"
       id="path4018-6"
       style="fill:none;stroke:#ff06df;stroke-width:5;stroke-linecap:butt;stroke-linejoin:miter;stroke-miterlimit:4;stroke-opacity:1;stroke-dasharray:none;marker-end:url(#Arrow1MendZ)" />
    <path
       d="M 325.4184,475.9682 287.56435,428.21115"
       id="path4018-4"
       style="fill:none;stroke:#ff06df;stroke-width:5;stroke-linecap:butt;stroke-linejoin:miter;stroke-miterlimit:4;stroke-opacity:1;stroke-dasharray:none;marker-end:url(#Arrow1MendZ)" />
  </g>
</svg>
