<?xml version="1.0" encoding="utf-8"?>
<!-- Generator: Adobe Illustrator 16.0.0, SVG Export Plug-In . SVG Version: 6.00 Build 0)  -->
<!DOCTYPE svg PUBLIC "-//W3C//DTD SVG 1.1//EN" "http://www.w3.org/Graphics/SVG/1.1/DTD/svg11.dtd">
<svg version="1.1" id="Layer_1" xmlns="http://www.w3.org/2000/svg" xmlns:xlink="http://www.w3.org/1999/xlink" x="0px" y="0px"
	 width="468px" height="468px" viewBox="0 0 468 468" enable-background="new 0 0 468 468" xml:space="preserve">
<path d="M268.952,262.345c-7.14,5.555-14.021,12.076-19.962,19.316c2.055,4.79,4.811,9.215,7.516,13.653
	c9.124-1.913,17.859-4.594,26.033-7.934c2.351,2.488,4.42,5.256,7.051,7.464c2.449,2.405,5.12,4.543,7.901,6.547
	c-2.633,8.876-4.084,17.805-4.837,27.446c4.597,2.369,9.197,4.785,14.106,6.478c6.207-6.744,11.697-14.055,16.419-21.746
	c3.275,1.03,6.679,1.446,10.05,2.025c3.394,0.347,6.819,0.659,10.234,0.614c3.075,8.432,7.19,17.114,12.209,24.972
	c5.146-0.538,10.19-1.645,15.187-2.971c1.055-9.08,1.156-18.466,0.527-27.277c3.191-1.202,6.269-2.741,9.303-4.3
	c2.928-1.768,5.944-3.402,8.619-5.551c7.586,5.201,15.749,9.524,24.553,13.05c3.837-3.47,7.29-7.374,10.531-11.392
	c-4.682-8.126-9.662-15.43-15.606-22.365c1.857-2.884,3.565-5.847,4.969-8.979c1.644-3.016,2.56-6.351,3.843-9.521
	c8.887-0.323,18.344-1.55,27.446-3.882c0.988-5.12,1.644-10.276,1.816-15.483c-8.239-3.825-17.157-6.788-25.741-8.902
	c-0.019-3.437-0.803-6.804-1.177-10.207c-0.895-3.307-1.394-6.725-2.627-9.931c7.141-5.551,14.019-12.075,19.963-19.317
	c-2.06-4.789-4.814-9.21-7.517-13.655c-9.128,1.915-17.862,4.597-26.035,7.937c-2.352-2.488-4.42-5.256-7.052-7.464
	c-2.447-2.406-5.119-4.543-7.898-6.551c2.631-8.873,4.083-17.799,4.835-27.447c-4.596-2.364-9.198-4.781-14.105-6.475
	c-6.206,6.745-11.702,14.056-16.419,21.748c-3.274-1.03-6.682-1.445-10.05-2.026c-3.394-0.348-6.822-0.659-10.233-0.611
	c-3.077-8.434-7.194-17.117-12.212-24.974c-5.146,0.538-10.19,1.647-15.186,2.969c-1.054,9.082-1.156,18.465-0.525,27.277
	c-3.192,1.202-6.271,2.741-9.304,4.302c-2.929,1.77-5.946,3.398-8.62,5.552c-7.585-5.202-15.751-9.524-24.551-13.053
	c-3.841,3.472-7.293,7.375-10.535,11.393c4.684,8.124,9.664,15.431,15.607,22.368c-1.859,2.878-3.565,5.846-4.967,8.979
	c-1.645,3.015-2.562,6.349-3.841,9.519c-8.895,0.323-18.345,1.551-27.449,3.885c-0.987,5.115-1.64,10.273-1.817,15.481
	c8.239,3.825,17.161,6.788,25.745,8.903c0.018,3.435,0.801,6.803,1.173,10.207C267.219,255.72,267.717,259.139,268.952,262.345z
	 M310.1,273.005c-7.49-6.911-12.316-16.149-14.363-26.146c-1.738-10.055-0.617-20.417,3.835-29.583
	c4.165-9.281,11.683-16.852,20.385-21.768c8.799-4.822,19.345-6.816,29.293-5.533c9.894,1.403,19.659,5.711,26.92,12.834
	c7.486,6.911,12.312,16.148,14.361,26.145c1.739,10.056,0.613,20.416-3.836,29.583c-4.163,9.28-11.684,16.855-20.386,21.771
	c-8.799,4.822-19.341,6.811-29.29,5.531C327.124,284.438,317.359,280.125,310.1,273.005z"/>
<path d="M97.007,208.604c-3.196,8.462-5.661,17.616-6.956,26.894c4.252,3.014,8.911,5.351,13.534,7.729
	c6.787-6.392,12.841-13.233,18.072-20.349c3.303,0.896,6.514,2.178,9.911,2.689c3.345,0.776,6.736,1.207,10.156,1.467
	c2.384,8.944,5.8,17.319,10.188,25.939c5.16-0.379,10.346-0.715,15.416-1.835c1.778-8.986,2.649-18.092,2.666-27.117
	c3.33-0.829,6.453-2.25,9.63-3.512c3.078-1.476,6.162-2.995,9.051-4.817c7.022,5.59,15.065,10.851,23.443,14.938
	c4.11-3.144,7.836-6.719,11.406-10.455c-3.835-8.299-8.644-16.358-13.778-23.547c2.098-2.69,3.92-5.612,5.694-8.522
	c1.576-3.036,3.298-6.003,4.458-9.233c9.187,0.483,18.406-0.085,27.756-1.67c1.466-4.963,2.375-10.094,3.042-15.211
	c-8.231-4.494-16.294-8.128-24.982-10.943c0.083-3.432-0.007-6.851-0.443-10.254c-0.171-3.428-1.13-6.752-1.689-10.127
	c7.417-4.909,14.843-10.888,21.393-17.627c-1.826-4.882-3.958-9.623-6.526-14.157c-9.024,1.033-18.181,3.158-26.608,5.832
	c-1.806-2.924-4.232-5.386-6.324-8.096c-2.489-2.352-4.695-5.008-7.422-7.101c3.197-8.459,5.661-17.613,6.958-26.895
	c-4.257-3.011-8.913-5.346-13.537-7.729c-6.789,6.396-12.841,13.239-18.072,20.352c-3.304-0.896-6.514-2.177-9.911-2.689
	c-3.343-0.775-6.737-1.207-10.156-1.469c-2.382-8.943-5.799-17.316-10.188-25.939c-5.156,0.38-10.342,0.718-15.414,1.834
	c-1.775,8.991-2.65,18.095-2.663,27.118c-3.333,0.83-6.455,2.251-9.634,3.514c-3.076,1.474-6.162,2.997-9.05,4.815
	c-7.021-5.589-15.065-10.85-23.442-14.938c-4.111,3.145-7.836,6.722-11.41,10.456c3.838,8.297,8.644,16.358,13.78,23.544
	c-2.098,2.691-3.919,5.612-5.694,8.525c-1.574,3.037-3.3,6.001-4.459,9.232c-9.185-0.48-18.405,0.09-27.755,1.669
	c-1.464,4.966-2.373,10.096-3.045,15.216c8.235,4.49,16.296,8.125,24.985,10.944c-0.085,3.425,0.008,6.847,0.445,10.249
	c0.17,3.431,1.126,6.755,1.686,10.126c-7.417,4.916-14.84,10.891-21.392,17.632c1.827,4.877,3.959,9.619,6.526,14.156
	c9.024-1.036,18.182-3.161,26.608-5.833c1.808,2.921,4.232,5.386,6.326,8.097C92.071,203.857,94.281,206.517,97.007,208.604z
	 M137.673,196.237c-9.994-1.99-18.93-7.354-25.891-14.816c-6.729-7.67-11.175-17.099-12.158-27.239
	c-1.289-10.09,1.176-20.475,6.036-29.206c4.992-8.703,12.948-15.905,22.107-20c9.171-3.963,19.751-5.381,29.662-3.092
	c9.992,1.99,18.927,7.354,25.892,14.816c6.728,7.671,11.173,17.099,12.156,27.239c1.289,10.091-1.177,20.477-6.038,29.208
	c-4.99,8.703-12.949,15.899-22.104,19.996C158.161,197.109,147.583,198.525,137.673,196.237z"/>
<path d="M121.922,382.359c-4.592,7.793-8.58,16.394-11.438,25.314c3.676,3.694,7.868,6.79,12.019,9.922
	c7.777-5.142,14.908-10.852,21.276-16.971c3.102,1.445,6.047,3.256,9.308,4.34c3.164,1.334,6.432,2.336,9.757,3.175
	c0.825,9.22,2.763,18.055,5.618,27.297c5.149,0.506,10.316,1.059,15.503,0.819c3.283-8.553,5.693-17.376,7.248-26.266
	c3.423-0.249,6.742-1.116,10.087-1.819c3.284-0.93,6.583-1.9,9.74-3.204c5.967,6.705,12.996,13.26,20.555,18.715
	c4.584-2.396,8.868-5.284,13.021-8.357c-2.363-8.832-5.729-17.593-9.563-25.551c2.526-2.293,4.82-4.861,7.063-7.427
	c2.07-2.724,4.272-5.354,5.967-8.339c8.97,2.041,18.15,3.053,27.635,3.085c2.29-4.642,4.061-9.543,5.59-14.471
	c-7.345-5.831-14.669-10.785-22.752-15.042c0.667-3.366,1.161-6.751,1.311-10.179c0.417-3.407,0.038-6.846,0.063-10.267
	c8.145-3.574,16.482-8.199,24.084-13.724c-0.967-5.122-2.26-10.156-4.017-15.062c-9.069-0.521-18.454,0.013-27.214,1.211
	c-1.281-3.189-3.253-6.029-4.853-9.055c-2.052-2.743-3.772-5.735-6.103-8.263c4.592-7.791,8.58-16.392,11.438-25.315
	c-3.681-3.692-7.87-6.786-12.021-9.924c-7.78,5.146-14.911,10.857-21.277,16.975c-3.103-1.447-6.047-3.256-9.308-4.34
	c-3.162-1.334-6.433-2.337-9.757-3.178c-0.823-9.218-2.763-18.051-5.619-27.296c-5.145-0.504-10.313-1.056-15.501-0.82
	c-3.282,8.558-5.696,17.378-7.245,26.268c-3.426,0.25-6.745,1.117-10.092,1.82c-3.283,0.928-6.583,1.902-9.738,3.202
	c-5.967-6.704-12.995-13.259-20.554-18.715c-4.586,2.398-8.867,5.288-13.024,8.359c2.368,8.829,5.729,17.592,9.565,25.549
	c-2.525,2.293-4.819,4.861-7.063,7.429c-2.069,2.724-4.275,5.352-5.967,8.337c-8.97-2.038-18.151-3.047-27.634-3.084
	c-2.29,4.644-4.059,9.544-5.594,14.474c7.349,5.828,14.672,10.783,22.754,15.042c-0.668,3.36-1.16,6.748-1.309,10.176
	c-0.417,3.408-0.042,6.847-0.064,10.265c-8.147,3.579-16.48,8.202-24.084,13.729c0.969,5.117,2.261,10.153,4.018,15.062
	c9.068,0.518,18.455-0.017,27.213-1.213c1.283,3.187,3.252,6.029,4.853,9.057C117.868,376.84,119.591,379.837,121.922,382.359z
	 M164.101,377.104c-9.509-3.665-17.4-10.473-22.987-19.012c-5.323-8.704-8.097-18.754-7.338-28.913
	c0.45-10.162,4.649-19.974,10.927-27.748c6.401-7.726,15.469-13.466,25.192-15.94c9.713-2.343,20.379-1.936,29.755,2.009
	c9.506,3.663,17.396,10.473,22.987,19.012c5.322,8.706,8.095,18.754,7.337,28.912c-0.451,10.162-4.65,19.977-10.928,27.752
	c-6.4,7.725-15.47,13.459-25.189,15.937C184.14,381.455,173.476,381.048,164.101,377.104z"/>
<path d="M-88.361-88.054c-0.489-2.282-0.705-4.628-1.428-6.854c5.065-3.206,10.169-7.033,14.646-11.27
	c-1.223-3.333-2.748-6.53-4.478-9.628c-6.353,0.438-12.693,1.667-18.479,3.364c-1.504-1.778-2.804-3.739-4.508-5.337
	c-1.569-1.727-3.302-3.28-5.113-4.745c2.337-5.76,3.979-11.553,5.253-17.812c-2.945-1.906-5.999-3.692-9.212-5.116
	c-4.903,4.166-9.229,8.71-12.992,13.7c-2.181-0.819-4.47-1.228-6.73-1.747c-2.283-0.361-4.592-0.698-6.902-0.791
	c-1.478-5.836-3.55-11.886-6.171-17.534c-3.495,0.212-6.973,0.574-10.399,1.327c-1.545,6.158-2.337,12.657-2.51,18.772
	c-2.206,0.7-4.341,1.634-6.449,2.585c-2.044,1.097-4.145,2.096-6.031,3.463c-4.678-3.968-9.774-7.521-15.205-10.556
	c-2.796,2.146-5.237,4.694-7.688,7.21c2.55,6.08,5.393,11.542,8.981,16.722c-1.359,1.893-2.619,3.847-3.679,5.927
	c-1.222,1.991-1.958,4.225-2.939,6.338c-5.969-0.412-12.159-0.277-18.438,0.438c-0.787,3.453-1.611,6.905-1.912,10.443
	c5.372,3.412,11.188,6.161,16.968,8.223c-0.109,2.338,0.3,4.658,0.431,6.988c0.489,2.281,0.707,4.627,1.429,6.854
	c-5.066,3.206-10.169,7.033-14.648,11.27c1.227,3.333,2.75,6.53,4.479,9.628c6.353-0.438,12.693-1.668,18.478-3.363
	c1.504,1.777,2.804,3.737,4.508,5.336c1.569,1.726,3.303,3.279,5.115,4.745c-2.339,5.759-3.98,11.553-5.254,17.812
	c2.946,1.907,5.998,3.693,9.212,5.116c4.904-4.166,9.227-8.711,12.991-13.701c2.182,0.82,4.471,1.23,6.731,1.748
	c2.282,0.36,4.591,0.697,6.903,0.79c1.477,5.836,3.549,11.886,6.17,17.534c3.495-0.212,6.974-0.575,10.398-1.328
	c1.546-6.157,2.337-12.656,2.511-18.771c2.208-0.7,4.341-1.634,6.449-2.585c2.043-1.098,4.145-2.096,6.029-3.463
	c4.679,3.969,9.775,7.521,15.206,10.556c2.796-2.145,5.237-4.694,7.687-7.209c-2.546-6.081-5.389-11.543-8.979-16.722
	c1.36-1.892,2.621-3.848,3.678-5.927c1.223-1.992,1.961-4.226,2.939-6.338c5.97,0.41,12.161,0.276,18.438-0.439
	c0.788-3.453,1.613-6.904,1.913-10.443c-5.371-3.412-11.188-6.159-16.968-8.225C-87.819-83.405-88.231-85.726-88.361-88.054z
	 M-126.671-51.298c-6.125,2.958-13.329,3.927-20.018,2.69c-6.645-1.317-13.102-4.608-17.762-9.719
	c-4.821-4.978-7.761-11.44-8.793-18.318c-0.82-6.905,0.307-13.915,3.644-19.988c3.146-6.162,8.505-11.04,14.565-14.065
	c6.124-2.959,13.33-3.927,20.016-2.691c6.647,1.317,13.104,4.608,17.763,9.72c4.823,4.978,7.761,11.44,8.794,18.318
	c0.822,6.906-0.306,13.915-3.644,19.989C-115.251-59.201-120.61-54.323-126.671-51.298z"/>
<path d="M-201.002,41.088c-0.205-2.635-0.094-5.303-0.573-7.913c6.227-2.834,12.585-6.363,18.302-10.445
	c-0.881-3.928-2.12-7.747-3.604-11.487c-7.262-0.468-14.628-0.043-21.437,0.987c-1.432-2.225-2.606-4.621-4.292-6.674
	c-1.517-2.176-3.241-4.182-5.068-6.102c3.524-6.116,6.265-12.374,8.657-19.21c-3.043-2.586-6.229-5.054-9.649-7.137
	c-6.187,3.938-11.776,8.39-16.799,13.425c-2.342-1.25-4.873-2.056-7.354-2.979c-2.53-0.748-5.093-1.477-7.695-1.931
	c-0.785-6.776-2.211-13.883-4.318-20.621c-3.991-0.29-7.985-0.408-11.979-0.079c-2.687,6.681-4.571,13.861-5.7,20.7
	c-2.603,0.454-5.164,1.183-7.695,1.931c-2.481,0.924-5.012,1.729-7.355,2.98c-4.694-5.163-9.923-9.922-15.612-14.15
	c-3.492,1.987-6.643,4.481-9.801,6.937c1.959,7.214,4.346,13.776,7.623,20.135c-1.828,1.921-3.552,3.926-5.067,6.102
	c-1.685,2.053-2.862,4.449-4.292,6.674c-6.698-1.361-13.726-2.146-20.943-2.289c-1.417,3.759-2.878,7.51-3.755,11.438
	c5.562,4.645,11.73,8.607,17.96,11.797c-0.481,2.61-0.369,5.277-0.574,7.912c0.206,2.636,0.093,5.305,0.574,7.913
	c-6.227,2.835-12.586,6.363-18.303,10.446c0.881,3.928,2.119,7.748,3.606,11.487c7.259,0.468,14.626,0.043,21.435-0.987
	c1.43,2.223,2.607,4.621,4.292,6.674c1.516,2.176,3.24,4.181,5.067,6.101c-3.524,6.117-6.264,12.376-8.658,19.211
	c3.043,2.586,6.23,5.054,9.649,7.137c6.188-3.938,11.777-8.389,16.8-13.425c2.342,1.25,4.873,2.056,7.354,2.979
	c2.531,0.749,5.093,1.478,7.695,1.932c0.785,6.776,2.211,13.884,4.317,20.621c3.991,0.29,7.985,0.408,11.979,0.078
	c2.688-6.681,4.572-13.861,5.701-20.699c2.603-0.454,5.165-1.183,7.695-1.932c2.481-0.923,5.012-1.729,7.354-2.979
	c4.695,5.164,9.925,9.922,15.614,14.15c3.49-1.987,6.643-4.481,9.8-6.937c-1.958-7.214-4.345-13.777-7.622-20.136
	c1.827-1.92,3.552-3.925,5.068-6.101c1.686-2.053,2.86-4.451,4.292-6.675c6.697,1.362,13.726,2.146,20.941,2.289
	c1.418-3.758,2.878-7.509,3.756-11.437c-5.562-4.646-11.729-8.608-17.959-11.798C-201.096,46.391-201.207,43.724-201.002,41.088z
	 M-249.975,76.584c-7.384,2.398-15.691,2.399-23.075,0c-7.324-2.482-14.133-7.15-18.634-13.597
	c-4.702-6.318-7.046-14.02-7.169-21.899c0.123-7.879,2.467-15.582,7.169-21.898c4.501-6.445,11.31-11.114,18.634-13.597
	c7.384-2.399,15.691-2.398,23.075,0c7.326,2.482,14.134,7.151,18.634,13.597c4.704,6.316,7.046,14.02,7.168,21.898
	c-0.122,7.88-2.464,15.581-7.168,21.899C-235.841,69.434-242.649,74.102-249.975,76.584z"/>
<path d="M-198.354,169.541c0.022-3.104-0.355-6.183-0.941-9.225c-0.726-3.01-1.653-5.971-2.956-8.785
	c5.363-5.053,10.068-11.075,13.863-17.918c-3.006-4.334-6.468-8.373-10.454-11.817c-7.683,2.501-14.625,6.211-20.542,10.885
	c-2.636-1.631-5.522-2.825-8.455-3.795c-2.941-0.983-6.001-1.531-9.078-1.888c-1.702-7.083-4.58-14.266-8.6-20.912
	c-5.265,0.344-10.41,1.478-15.415,3.069c-1.691,7.954-1.945,15.835-0.907,23.232c-2.651,1.594-5.213,3.361-7.485,5.471
	c-2.271,2.097-4.402,4.376-6.13,6.946c-7.115-2.157-14.611-3.166-22.441-3.076c-2.337,4.721-3.954,9.779-5.061,14.943
	c6.042,5.436,12.733,9.594,19.692,12.383c-0.023,3.1,0.356,6.181,0.942,9.221c0.723,3.008,1.652,5.974,2.952,8.789
	c-5.362,5.05-10.067,11.072-13.86,17.914c3.004,4.334,6.464,8.377,10.45,11.819c7.684-2.5,14.626-6.211,20.543-10.881
	c2.638,1.625,5.522,2.819,8.456,3.791c2.94,0.98,6,1.531,9.079,1.887c1.703,7.081,4.58,14.267,8.599,20.912
	c5.266-0.347,10.408-1.479,15.416-3.071c1.689-7.954,1.939-15.834,0.903-23.23c2.655-1.596,5.214-3.361,7.486-5.472
	c2.27-2.094,4.403-4.374,6.134-6.945c7.112,2.159,14.607,3.169,22.438,3.079c2.336-4.724,3.953-9.779,5.063-14.942
	C-184.705,176.488-191.396,172.327-198.354,169.541z M-223.146,165.475c1.28,6.184-0.718,12.966-5.559,17.198
	c-4.563,4.27-11.681,5.81-17.598,3.807c-6.156-1.853-10.78-7.204-12.17-13.364c-1.278-6.183,0.717-12.967,5.559-17.196
	c4.562-4.268,11.678-5.809,17.597-3.804C-229.158,153.963-224.535,159.323-223.146,165.475z"/>
<g>
	<path d="M-531.727,382.406c-5.192,4.026-10.354,8.501-15.11,13.28c1.247,3.266,2.688,6.45,4.222,9.584
		c6.638-0.697,13.089-1.706,19.51-3.11c1.246,2.265,2.67,4.423,4.071,6.593c1.488,2.112,2.971,4.228,4.604,6.233
		c-3.495,5.711-6.535,11.602-9.349,17.853c2.363,2.569,4.826,5.045,7.391,7.415c5.939-3.033,11.635-6.336,17.083-9.914
		c2.017,1.617,4.06,3.195,6.193,4.657c2.12,1.476,4.294,2.879,6.53,4.171c-1.172,6.55-1.926,13.23-2.245,20.015
		c3.135,1.541,6.322,3,9.594,4.234c4.417-4.923,8.539-10.112,12.32-15.435c2.446,0.831,4.952,1.479,7.456,2.108
		c2.514,0.598,5.042,1.121,7.597,1.516c1.268,6.57,2.988,12.966,5.111,19.494c3.479,0.278,6.961,0.486,10.458,0.489
		c2.349-6.177,4.332-12.56,5.951-18.819c2.575-0.2,5.157-0.352,7.713-0.741c2.569-0.293,5.103-0.814,7.642-1.297
		c3.53,5.559,7.5,11.089,11.824,16.276c3.37-0.929,6.678-2.076,9.94-3.323c-0.072-6.653-0.493-13.195-1.297-19.71
		c2.373-1.026,4.653-2.25,6.935-3.453c2.255-1.267,4.483-2.572,6.636-4.003c5.347,3.977,10.968,7.591,16.914,10.94
		c2.784-2.106,5.458-4.351,8.069-6.666c-2.503-6.219-5.227-12.151-8.312-17.934c1.814-1.839,3.553-3.75,5.216-5.727
		c1.636-1.998,3.288-3.992,4.752-6.122c6.427,1.784,12.975,3.135,19.727,4.102c1.819-2.986,3.561-6.023,5.104-9.163
		c-4.474-4.847-9.306-9.456-14.215-13.697c0.986-2.385,1.984-4.775,2.773-7.236c0.863-2.436,1.551-4.928,2.229-7.42
		c6.559-0.687,13.255-1.786,19.846-3.329c0.652-3.424,1.098-6.879,1.473-10.343c-6.017-2.911-12.071-5.463-18.211-7.654
		c0.063-2.584,0.116-5.169-0.017-7.749c-0.054-2.584-0.327-5.16-0.593-7.729c5.898-3.003,11.733-6.436,17.317-10.263
		c-0.623-3.44-1.433-6.85-2.392-10.209c-6.609-0.556-13.195-0.73-19.745-0.535c-0.794-2.46-1.808-4.841-2.806-7.223
		c-1.028-2.371-2.149-4.698-3.365-6.981c4.421-4.942,8.585-10.235,12.437-15.832c-1.834-2.971-3.83-5.837-5.896-8.648
		c-6.428,1.927-12.557,4.071-18.617,6.634c-1.654-1.988-3.419-3.874-5.217-5.729c-1.848-1.806-3.679-3.631-5.662-5.29
		c2.379-6.245,4.308-12.613,5.917-19.269c-2.809-2.08-5.672-4.089-8.646-5.928c-5.241,4.006-10.292,8.405-14.958,12.876
		c-2.292-1.187-4.573-2.411-6.951-3.423c-2.338-1.103-4.771-1.986-7.181-2.914c-0.086-6.572-0.551-13.384-1.5-20.06
		c-3.352-0.983-6.766-1.728-10.182-2.41c-3.445,5.753-6.521,11.454-9.276,17.444c-2.56-0.354-5.133-0.574-7.715-0.719
		c-2.577-0.109-5.166-0.205-7.748-0.107c-2.445-6.19-5.315-12.268-8.607-18.207c-3.479,0.334-6.958,0.77-10.39,1.438
		c-1.17,6.511-1.947,13.096-2.367,19.605c-2.512,0.599-4.999,1.324-7.45,2.133c-2.46,0.791-4.872,1.72-7.267,2.695
		c-4.498-4.824-9.415-9.513-14.62-13.83c-3.129,1.548-6.167,3.273-9.151,5.082c1.318,6.565,2.897,12.871,4.894,19.145
		c-2.136,1.456-4.161,3.06-6.189,4.661c-1.964,1.678-3.944,3.339-5.785,5.156c-6.007-2.953-12.149-5.441-18.644-7.676
		c-2.322,2.611-4.582,5.274-6.695,8.058c3.535,5.612,7.404,11.017,11.437,16.088c-1.399,2.173-2.811,4.337-4.053,6.606
		c-1.316,2.224-2.432,4.56-3.557,6.883c-6.596-0.542-13.364-0.69-20.125-0.369c-1.288,3.249-2.373,6.583-3.333,9.938
		c5.349,3.947,10.831,7.553,16.515,10.835c-0.622,2.51-0.989,5.07-1.438,7.613c-0.295,2.565-0.674,5.123-0.794,7.708
		c-6.419,1.86-12.668,4.156-18.941,6.882c0.032,3.492,0.138,6.988,0.476,10.472c6.354,1.771,12.888,3.157,19.293,4.183
		c0.415,2.547,0.817,5.104,1.445,7.614C-533.184,377.448-532.446,379.926-531.727,382.406z M-513.668,341.202
		c1.433-9.632,4.585-18.914,9.345-27.334c4.75-8.415,11.091-15.955,18.591-22.11c7.5-6.156,16.154-10.896,25.344-13.913
		c9.193-3.024,18.916-4.305,28.597-3.8c9.712,0.472,19.309,2.854,28.113,6.786c8.819,3.945,16.896,9.554,23.709,16.455
		c6.827,6.887,12.347,15.077,16.2,23.962c3.864,8.886,6.05,18.458,6.427,28.12c0.404,9.65-1.031,19.496-4.175,28.63
		c-3.118,9.152-7.944,17.703-14.184,25.114c-6.229,7.414-13.859,13.688-22.366,18.34c-8.501,4.672-17.843,7.738-27.421,9.003
		c-9.562,1.254-19.437,0.8-28.881-1.521c-9.423-2.278-18.375-6.282-26.322-11.808c-7.945-5.51-14.888-12.524-20.318-20.565
		c-5.43-8.04-9.356-17.075-11.503-26.499C-514.671,360.636-515.044,350.839-513.668,341.202z"/>
</g>
</svg>
